<svg xmlns="http://www.w3.org/2000/svg" xmlns:xlink="http://www.w3.org/1999/xlink" viewBox="0 0 65.71 65.71"><defs><style>.cls-1{fill:#fff;filter:url(#luminosity-invert-noclip);}.cls-2{mask:url(#mask);}.cls-3{fill:#b21d1d;}.cls-4{font-size:31.37px;fill:#dcdada;font-family:PingFangSC-Medium-GBpc-EUC-H, PingFang SC;}</style><filter id="luminosity-invert-noclip" x="0" y="0" width="65.71" height="65.71" filterUnits="userSpaceOnUse" color-interpolation-filters="sRGB"><feColorMatrix values="-1 0 0 0 1 0 -1 0 0 1 0 0 -1 0 1 0 0 0 1 0" result="invert"/><feFlood flood-color="#fff" result="bg"/><feBlend in="invert" in2="bg"/></filter><mask id="mask" x="0" y="0" width="65.71" height="65.71" maskUnits="userSpaceOnUse"><path class="cls-1" d="M40.16,22.34a7.63,7.63,0,0,0-6,3.09,7.32,7.32,0,0,0-5.87-3.09h0a8.14,8.14,0,0,0-5.57,2.34,7.87,7.87,0,0,0-2.49,5.67c0,3.18,2.81,5.93,6.36,9.41a63.39,63.39,0,0,1,7.11,7.83.55.55,0,0,0,.88,0,63.32,63.32,0,0,1,7.11-7.84c3.55-3.48,6.36-6.23,6.36-9.4A8.18,8.18,0,0,0,40.16,22.34Z"/></mask></defs><title>icon_1_1</title><g id="Layer_2" data-name="Layer 2"><g id="Layer_1-2" data-name="Layer 1"><g class="cls-2"><circle class="cls-3" cx="32.86" cy="32.86" r="32.86"/></g><circle class="cls-3" cx="32.86" cy="32.86" r="26"/><text class="cls-4" transform="translate(23.45 42.71) scale(0.97 1)">3</text></g></g></svg>