<svg xmlns="http://www.w3.org/2000/svg" xmlns:xlink="http://www.w3.org/1999/xlink" viewBox="0 0 65.71 65.71"><defs><style>.cls-1{fill:#fff;filter:url(#luminosity-invert-noclip);}.cls-2{fill:#dcdada;}.cls-3{mask:url(#mask);}.cls-4{fill:#b21d1d;}</style><filter id="luminosity-invert-noclip" x="0" y="0" width="65.71" height="65.71" filterUnits="userSpaceOnUse" color-interpolation-filters="sRGB"><feColorMatrix values="-1 0 0 0 1 0 -1 0 0 1 0 0 -1 0 1 0 0 0 1 0" result="invert"/><feFlood flood-color="#fff" result="bg"/><feBlend in="invert" in2="bg"/></filter><mask id="mask" x="0" y="0" width="65.71" height="65.71" maskUnits="userSpaceOnUse"><path class="cls-1" d="M24.38,18.3v2.63H20.44a1.32,1.32,0,0,0-1.32,1.32c0,3.89,0,7.89,1.58,10.56A11.15,11.15,0,0,0,31.06,38a8.94,8.94,0,0,1,1.21,2.71V42a4,4,0,0,1-1,2.63h-1.6v1.32H28.33v3.94H38.85V45.92H37.53V44.6h-1.6a4,4,0,0,1-1-2.63V40.46A8.9,8.9,0,0,1,35.83,38c1.67.52,4.29-.23,5.86-.87a10.1,10.1,0,0,0,4.44-3.68c1.42-1.86,1.92-2.58,1.92-11.15a1.32,1.32,0,0,0-1.32-1.32H42.79V18.3Zm-.12,14.88c-1.84-1.88-.56-.57,0,0-2.84-2.89-2.6-5.86-2.55-9.61h2.67A12.14,12.14,0,0,0,25.16,29a25,25,0,0,0,3.93,6.27,7.8,7.8,0,0,1-4.82-2.1Zm21.17-9.62c0,.72,0,2,0,2.63,0,3.83-1.17,5.63-2.52,7a7.9,7.9,0,0,1-5.32,2.16,34.09,34.09,0,0,0,4.15-5.83c1.2-2.35,1-3.43,1-5.94Z"/></mask></defs><title>icon_3</title><g id="Layer_2" data-name="Layer 2"><g id="Layer_1-2" data-name="Layer 1"><circle class="cls-2" cx="31.88" cy="32.86" r="26.28"/><g class="cls-3"><circle class="cls-4" cx="32.86" cy="32.86" r="32.86"/></g></g></g></svg>