<svg xmlns="http://www.w3.org/2000/svg" xmlns:xlink="http://www.w3.org/1999/xlink" viewBox="0 0 65.71 65.71"><defs><style>.cls-1{fill:#fff;}.cls-2{fill:#dcdada;}.cls-3{mask:url(#mask);}.cls-4{fill:#b21d1d;}.cls-5{filter:url(#luminosity-invert-noclip);}</style><filter id="luminosity-invert-noclip" x="0" y="0" width="65.71" height="65.71" filterUnits="userSpaceOnUse" color-interpolation-filters="sRGB"><feColorMatrix values="-1 0 0 0 1 0 -1 0 0 1 0 0 -1 0 1 0 0 0 1 0" result="invert"/><feFlood flood-color="#fff" result="bg"/><feBlend in="invert" in2="bg"/></filter><mask id="mask" x="0" y="0" width="65.71" height="65.71" maskUnits="userSpaceOnUse"><g class="cls-5"><path class="cls-1" d="M28.42,24.25a4.15,4.15,0,0,0-.18,1.08v1.88a6.39,6.39,0,0,0,.11,1.09l.53,1.28a1.74,1.74,0,0,1,.36,1v2.67a1,1,0,0,1-.49.81s-5.88,3.1-6.52,3.47a2,2,0,0,0-.93,1.4,10.1,10.1,0,0,0-.07,1.1v1.4a3.33,3.33,0,0,0,.06.72c0,.09.46.17.76.17H43.44a1.83,1.83,0,0,0,.69-.1,1.82,1.82,0,0,0,.13-.79V40a9.86,9.86,0,0,0-.07-1.1,2,2,0,0,0-.93-1.4c-.65-.37-6.52-3.47-6.52-3.47a1,1,0,0,1-.49-.81V30.55a1.73,1.73,0,0,1,.36-1l.52-1.27a6.29,6.29,0,0,0,.12-1.09V25.33a4.13,4.13,0,0,0-.17-1.08s-1.33-4-4.33-4S28.42,24.25,28.42,24.25Z"/><path class="cls-1" d="M49.36,35c-.45-.25-4.6-2.34-4.6-2.34a1,1,0,0,1-.49-.8V30.3a1.32,1.32,0,0,1,.43-.9l.57-.65V27a4.65,4.65,0,0,0-.15-1.08s-.76-2.6-2.85-2.6-2.85,2.6-2.85,2.6A4.62,4.62,0,0,0,39.26,27v1.79l.57.66a1.31,1.31,0,0,1,.43.9v1.52a.86.86,0,0,1-.52.75l-.81.33c-.28.13-.28.35,0,.49l4.25,2.32.66.38a5.76,5.76,0,0,1,.6.47l1,1.22a.9.9,0,0,0,.77.51h3.33a2.1,2.1,0,0,0,.65-.07,1.94,1.94,0,0,0,.09-.72v-.63a3.9,3.9,0,0,0-.18-1.08A1.69,1.69,0,0,0,49.36,35Z"/><path class="cls-1" d="M21.56,36.16l.55-.31,4.49-2.45c.27-.14.26-.36,0-.49l-.83-.34a.86.86,0,0,1-.52-.75V30.3a1.32,1.32,0,0,1,.43-.9l.57-.65V27a4.65,4.65,0,0,0-.16-1.08s-.76-2.6-2.85-2.6-2.85,2.6-2.85,2.6A4.67,4.67,0,0,0,20.23,27v1.79l.57.66a1.31,1.31,0,0,1,.43.9v1.52a1,1,0,0,1-.49.8s-4.15,2.09-4.6,2.34a1.69,1.69,0,0,0-.73.83,3.94,3.94,0,0,0-.18,1.08v.63a3.7,3.7,0,0,0,0,.67,1.43,1.43,0,0,0,.7.12h3.32a.9.9,0,0,0,.77-.51l1-1.22Z"/></g></mask></defs><title>icon_2</title><g id="Layer_2" data-name="Layer 2"><g id="Layer_1-2" data-name="Layer 1"><circle class="cls-2" cx="33.84" cy="32.86" r="26.28"/><g class="cls-3"><circle class="cls-4" cx="32.86" cy="32.86" r="32.86"/></g></g></g></svg>