<svg xmlns="http://www.w3.org/2000/svg" viewBox="0 0 841.89 595.28"><defs><style>.cls-1{fill:#f7f7f7;}.cls-2,.cls-4{fill:none;stroke-miterlimit:10;stroke-width:0.5px;}.cls-2{stroke:#939598;}.cls-3{font-size:24px;fill:#414042;}.cls-3,.cls-6{font-family:NotoSansCJKtc-Bold-B5pc-H, Noto Sans CJK TC;font-weight:700;}.cls-4{stroke:#2f8ec1;stroke-dasharray:2 3;}.cls-5{fill:#ee6224;}.cls-6{font-size:18px;fill:#231f20;}.cls-7{letter-spacing:-0.01em;}</style></defs><title>w4pic_9</title><g id="Layer_2" data-name="Layer 2"><g id="圖層_1" data-name="圖層 1"><rect class="cls-1" x="123.31" y="-123.31" width="595.28" height="841.89" transform="translate(718.58 -123.31) rotate(90)"/><line class="cls-2" x1="21.41" y1="387.15" x2="820.48" y2="387.19"/><text class="cls-3" transform="translate(148.68 194.14) scale(0.94 1)">86%</text><polyline class="cls-4" points="158.3 220.95 253.62 239.25 344.51 239.25 433.18 230.1 521.85 261.06 612.74 205.04 705.84 239.25"/><circle class="cls-5" cx="162.81" cy="221.79" r="5.85"/><text class="cls-3" transform="translate(242.43 210.89) scale(0.94 1)">79%</text><circle class="cls-5" cx="256.56" cy="238.54" r="5.85"/><text class="cls-3" transform="translate(328.83 210.89) scale(0.94 1)">79%</text><circle class="cls-5" cx="342.96" cy="238.54" r="5.85"/><text class="cls-3" transform="translate(417.86 203.04) scale(0.94 1)">83%</text><circle class="cls-5" cx="431.99" cy="230.69" r="5.85"/><text class="cls-3" transform="translate(506.07 232.69) scale(0.94 1)">71%</text><circle class="cls-5" cx="520.2" cy="260.35" r="5.85"/><text class="cls-3" transform="translate(600.29 177.39) scale(0.94 1)">92%</text><circle class="cls-5" cx="614.42" cy="205.04" r="5.85"/><text class="cls-3" transform="translate(692.14 210.89) scale(0.94 1)">79%</text><circle class="cls-5" cx="706.27" cy="238.54" r="5.85"/><text class="cls-6" transform="translate(145.04 443.69) scale(0.94 1)"><tspan class="cls-7">U</tspan><tspan x="13.32" y="0">ser 1</tspan></text><text class="cls-6" transform="translate(238.8 443.69) scale(0.94 1)"><tspan class="cls-7">U</tspan><tspan x="13.32" y="0">ser 2</tspan></text><text class="cls-6" transform="translate(325.2 443.69) scale(0.94 1)"><tspan class="cls-7">U</tspan><tspan x="13.32" y="0">ser 3</tspan></text><text class="cls-6" transform="translate(414.23 443.69) scale(0.94 1)"><tspan class="cls-7">U</tspan><tspan x="13.32" y="0">ser 4</tspan></text><text class="cls-6" transform="translate(501.23 443.07) scale(0.94 1)"><tspan class="cls-7">U</tspan><tspan x="13.32" y="0">ser 5</tspan></text><text class="cls-6" transform="translate(586.85 443.07) scale(0.94 1)"><tspan class="cls-7">U</tspan><tspan x="13.32" y="0">ser 6</tspan></text><text class="cls-6" transform="translate(670.29 443.07) scale(0.94 1)"><tspan class="cls-7">U</tspan><tspan x="13.32" y="0">ser 7</tspan></text></g></g></svg>