<svg xmlns="http://www.w3.org/2000/svg" viewBox="0 0 841.89 595.28"><defs><style>.cls-1{fill:#f7f7f7;}.cls-2,.cls-3{fill:none;stroke-miterlimit:10;stroke-width:0.5px;}.cls-2{stroke:#939598;}.cls-3{stroke:#2f8ec1;stroke-dasharray:2 3;}.cls-4{fill:#19688d;}.cls-5{font-size:24px;}.cls-5,.cls-6{fill:#414042;font-family:NotoSansCJKtc-Bold-B5pc-H, Noto Sans CJK TC;font-weight:700;}.cls-6{font-size:18px;}.cls-7{letter-spacing:-0.02em;}.cls-8{letter-spacing:-0.02em;}.cls-9{letter-spacing:0em;}.cls-10{letter-spacing:-0.03em;}.cls-11{letter-spacing:-0.01em;}.cls-12{letter-spacing:-0.02em;}.cls-13{letter-spacing:0em;}.cls-14{letter-spacing:-0.02em;}.cls-15{letter-spacing:-0.01em;}.cls-16{letter-spacing:-0.01em;}.cls-17{letter-spacing:-0.03em;}.cls-18{letter-spacing:-0.02em;}</style></defs><title>w4pic_8</title><g id="Layer_2" data-name="Layer 2"><g id="圖層_1" data-name="圖層 1"><rect class="cls-1" x="123.31" y="-123.31" width="595.28" height="841.89" transform="translate(718.58 -123.31) rotate(90)"/><line class="cls-2" x1="21.41" y1="424.03" x2="820.48" y2="424.07"/><polyline class="cls-3" points="116.34 340.37 307.86 269.11 512.78 145.92 716.19 207.78"/><circle class="cls-4" cx="116.34" cy="340.36" r="5.85"/><circle class="cls-4" cx="307.86" cy="269.11" r="5.85"/><circle class="cls-4" cx="512.78" cy="145.92" r="5.85"/><circle class="cls-4" cx="716.19" cy="207.78" r="5.85"/><text class="cls-5" transform="translate(92.75 310.41) scale(0.94 1)">3.86</text><text class="cls-5" transform="translate(284.27 241.09) scale(0.94 1)">3.93</text><text class="cls-5" transform="translate(489.19 117) scale(0.94 1)">4.14</text><text class="cls-5" transform="translate(692.6 180.13) scale(0.94 1)">4.01</text><text class="cls-6" transform="translate(46.61 480.57) scale(0.94 1)">In<tspan class="cls-7" x="17.48" y="0">t</tspan><tspan x="24.7" y="0">er</tspan><tspan class="cls-8" x="43" y="0">f</tspan><tspan class="cls-9" x="49.28" y="0">a</tspan><tspan class="cls-10" x="59.92" y="0">c</tspan><tspan x="68.87" y="0">e Quality</tspan></text><text class="cls-6" transform="translate(226.62 480.57) scale(0.94 1)">In<tspan class="cls-11" x="17.48" y="0">f</tspan><tspan x="23.96" y="0">orm</tspan><tspan class="cls-12" x="60.43" y="0">a</tspan><tspan class="cls-13" x="70.72" y="0">tion Quality</tspan></text><text class="cls-6" transform="translate(437.02 480.57) scale(0.94 1)">Sy<tspan class="cls-14" x="21.56" y="0">s</tspan><tspan class="cls-7" x="30.06" y="0">t</tspan><tspan x="37.28" y="0">em </tspan><tspan class="cls-15" x="69.17" y="0">U</tspan><tspan class="cls-9" x="82.49" y="0">s</tspan><tspan class="cls-16" x="91.4" y="0">e</tspan><tspan x="101.77" y="0">fulness</tspan></text><text class="cls-6" transform="translate(637.1 480.57) scale(0.94 1)">O<tspan class="cls-15" x="13.86" y="0">v</tspan><tspan x="24.08" y="0">e</tspan><tspan class="cls-17" x="34.54" y="0">r</tspan><tspan x="41.83" y="0">all S</tspan><tspan class="cls-12" x="79.13" y="0">a</tspan><tspan class="cls-13" x="89.42" y="0">tis</tspan><tspan class="cls-18" x="111.36" y="0">f</tspan><tspan x="117.65" y="0">a</tspan><tspan class="cls-11" x="128.28" y="0">c</tspan><tspan class="cls-13" x="137.55" y="0">tion</tspan></text></g></g></svg>